<svg width="40" height="40" viewBox="0 0 40 40" fill="none" xmlns="http://www.w3.org/2000/svg">
<path d="M14.32 27.1367L14.774 26.2457L14.774 26.2457L14.32 27.1367ZM12.8633 25.68L11.9723 26.134L12.8633 25.68ZM27.1367 25.68L26.2457 25.226L26.2457 25.226L27.1367 25.68ZM25.68 27.1367L26.134 28.0277L26.134 28.0277L25.68 27.1367ZM15.6667 27.5C15.6667 28.0523 16.1144 28.5 16.6667 28.5C17.219 28.5 17.6667 28.0523 17.6667 27.5H16.6667H15.6667ZM22.3333 27.5C22.3333 28.0523 22.781 28.5 23.3333 28.5C23.8856 28.5 24.3333 28.0523 24.3333 27.5H23.3333H22.3333ZM17.5 16.6667L16.5194 16.4706L16.5 16.5676V16.6667H17.5ZM12.5203 16.987L11.5284 17.1138L11.5284 17.1138L12.5203 16.987ZM22.5 16.6667H23.5V16.5676L23.4806 16.4706L22.5 16.6667ZM27.4695 17.0586L26.4816 16.9031L26.4816 16.9031L27.4695 17.0586ZM12.6192 16.3687L13.5477 16.74L13.5477 16.74L12.6192 16.3687ZM13.7476 13.5477L14.6761 13.9191L14.6761 13.9191L13.7476 13.5477ZM25.8773 13.4213L24.9829 13.8685L24.9829 13.8685L25.8773 13.4213ZM27.324 16.3148L28.2185 15.8675L28.2185 15.8675L27.324 16.3148ZM27.5 16.6667H26.5V22.1667H27.5H28.5V16.6667H27.5ZM22.1667 27.5V26.5H17.8333V27.5V28.5H22.1667V27.5ZM12.5 22.1667H13.5V16.6667H12.5H11.5V22.1667H12.5ZM17.8333 27.5V26.5C16.8834 26.5 16.2311 26.4992 15.7254 26.4579C15.2314 26.4175 14.9661 26.3435 14.774 26.2457L14.32 27.1367L13.866 28.0277C14.387 28.2932 14.9449 28.4008 15.5626 28.4513C16.1686 28.5008 16.9164 28.5 17.8333 28.5V27.5ZM12.5 22.1667H11.5C11.5 23.0836 11.4992 23.8314 11.5487 24.4374C11.5992 25.0551 11.7068 25.613 11.9723 26.134L12.8633 25.68L13.7543 25.226C13.6565 25.0339 13.5825 24.7686 13.5421 24.2746C13.5008 23.7689 13.5 23.1166 13.5 22.1667H12.5ZM14.32 27.1367L14.774 26.2457C14.335 26.022 13.978 25.665 13.7543 25.226L12.8633 25.68L11.9723 26.134C12.3878 26.9493 13.0507 27.6122 13.866 28.0277L14.32 27.1367ZM27.5 22.1667H26.5C26.5 23.1166 26.4992 23.7689 26.4579 24.2746C26.4175 24.7686 26.3435 25.0339 26.2457 25.226L27.1367 25.68L28.0277 26.134C28.2932 25.613 28.4008 25.0551 28.4513 24.4374C28.5008 23.8314 28.5 23.0836 28.5 22.1667H27.5ZM22.1667 27.5V28.5C23.0836 28.5 23.8314 28.5008 24.4374 28.4513C25.0551 28.4008 25.613 28.2932 26.134 28.0277L25.68 27.1367L25.226 26.2457C25.0339 26.3435 24.7686 26.4175 24.2746 26.4579C23.7689 26.4992 23.1166 26.5 22.1667 26.5V27.5ZM27.1367 25.68L26.2457 25.226C26.022 25.665 25.665 26.022 25.226 26.2457L25.68 27.1367L26.134 28.0277C26.9493 27.6122 27.6122 26.9493 28.0277 26.134L27.1367 25.68ZM16.6667 27.5H17.6667V24.1667H16.6667H15.6667V27.5H16.6667ZM18.3333 22.5V23.5H21.6667V22.5V21.5H18.3333V22.5ZM23.3333 24.1667H22.3333V27.5H23.3333H24.3333V24.1667H23.3333ZM21.6667 22.5V23.5C22.0349 23.5 22.3333 23.7985 22.3333 24.1667H23.3333H24.3333C24.3333 22.6939 23.1394 21.5 21.6667 21.5V22.5ZM16.6667 24.1667H17.6667C17.6667 23.7985 17.9651 23.5 18.3333 23.5V22.5V21.5C16.8606 21.5 15.6667 22.6939 15.6667 24.1667H16.6667ZM17.5 16.6667H16.5C16.5 17.4951 15.8284 18.1667 15 18.1667V19.1667V20.1667C16.933 20.1667 18.5 18.5997 18.5 16.6667H17.5ZM15 19.1667V18.1667C14.2375 18.1667 13.6065 17.5968 13.5122 16.8601L12.5203 16.987L11.5284 17.1138C11.7487 18.836 13.2182 20.1667 15 20.1667V19.1667ZM22.5 16.6667H21.5C21.5 17.4951 20.8284 18.1667 20 18.1667V19.1667V20.1667C21.933 20.1667 23.5 18.5997 23.5 16.6667H22.5ZM20 19.1667V18.1667C19.1716 18.1667 18.5 17.4951 18.5 16.6667H17.5H16.5C16.5 18.5997 18.067 20.1667 20 20.1667V19.1667ZM27.4695 17.0586L26.4816 16.9031C26.3689 17.6189 25.7475 18.1667 25 18.1667V19.1667V20.1667C26.7473 20.1667 28.1938 18.8873 28.4573 17.2141L27.4695 17.0586ZM25 19.1667V18.1667C24.1716 18.1667 23.5 17.4951 23.5 16.6667H22.5H21.5C21.5 18.5997 23.067 20.1667 25 20.1667V19.1667ZM12.6192 16.3687L13.5477 16.74L14.6761 13.9191L13.7476 13.5477L12.8191 13.1763L11.6907 15.9973L12.6192 16.3687ZM25.8773 13.4213L24.9829 13.8685L26.4296 16.762L27.324 16.3148L28.2185 15.8675L26.7717 12.9741L25.8773 13.4213ZM15.2951 12.5V13.5H18.3333V12.5V11.5H15.2951V12.5ZM17.5 16.6667L18.4806 16.8628L19.3139 12.6961L18.3333 12.5L17.3528 12.3039L16.5194 16.4706L17.5 16.6667ZM18.3333 12.5V13.5H21.6667V12.5V11.5H18.3333V12.5ZM21.6667 12.5V13.5H24.3866V12.5V11.5H21.6667V12.5ZM22.5 16.6667L23.4806 16.4706L22.6472 12.3039L21.6667 12.5L20.6861 12.6961L21.5194 16.8628L22.5 16.6667ZM25.8773 13.4213L26.7717 12.9741C26.32 12.0707 25.3967 11.5 24.3866 11.5V12.5V13.5C24.6391 13.5 24.87 13.6427 24.9829 13.8685L25.8773 13.4213ZM27.4695 17.0586L28.4573 17.2141C28.5414 16.6796 28.3876 16.2057 28.2185 15.8675L27.324 16.3148L26.4296 16.762C26.4583 16.8193 26.4719 16.8616 26.4776 16.888C26.483 16.9129 26.4796 16.9156 26.4816 16.9031L27.4695 17.0586ZM13.7476 13.5477L14.6761 13.9191C14.7773 13.666 15.0225 13.5 15.2951 13.5V12.5V11.5C14.2046 11.5 13.2241 12.1639 12.8191 13.1763L13.7476 13.5477ZM12.5203 16.987L13.5122 16.8601C13.5135 16.8701 13.5113 16.867 13.515 16.846C13.5189 16.8241 13.528 16.7891 13.5477 16.74L12.6192 16.3687L11.6907 15.9973C11.5753 16.2858 11.4724 16.6758 11.5284 17.1138L12.5203 16.987Z" fill="#175CD3"/>
</svg>
