<svg width="40" height="40" viewBox="0 0 40 40" fill="none" xmlns="http://www.w3.org/2000/svg">
<path d="M13.1085 28.7123L12.6545 29.6033L12.6545 29.6033L13.1085 28.7123ZM11.2876 26.8914L12.1786 26.4374L12.1786 26.4374L11.2876 26.8914ZM28.7127 26.8914L27.8216 26.4374L27.8216 26.4374L28.7127 26.8914ZM26.8918 28.7123L26.4378 27.8212L26.8918 28.7123ZM26.8918 11.2872L26.4378 12.1782L26.4378 12.1782L26.8918 11.2872ZM28.7127 13.1081L29.6037 12.6541L29.6037 12.6541L28.7127 13.1081ZM13.1085 11.2872L13.5625 12.1782L13.5625 12.1782L13.1085 11.2872ZM11.2876 13.1081L12.1786 13.5621L12.1786 13.5621L11.2876 13.1081ZM16.6704 11.834C17.2226 11.832 17.6688 11.3827 17.6668 10.8304C17.6648 10.2781 17.2155 9.83202 16.6632 9.83399L16.6668 10.834L16.6704 11.834ZM23.337 9.83399C22.7847 9.83202 22.3354 10.2781 22.3335 10.8304C22.3315 11.3827 22.7776 11.832 23.3299 11.834L23.3335 10.834L23.337 9.83399ZM11.8342 23.2624C11.8325 22.7101 11.3835 22.2637 10.8312 22.2653C10.2789 22.2669 9.83255 22.716 9.83417 23.2682L10.8342 23.2653L11.8342 23.2624ZM30.1661 23.2682C30.1677 22.716 29.7213 22.2669 29.169 22.2653C28.6167 22.2637 28.1677 22.7101 28.1661 23.2624L29.1661 23.2653L30.1661 23.2682ZM28.1659 16.67C28.1678 17.2222 28.6171 17.6684 29.1694 17.6664C29.7217 17.6644 30.1678 17.2151 30.1659 16.6628L29.1659 16.6664L28.1659 16.67ZM16.6632 30.1655C17.2155 30.1674 17.6648 29.7213 17.6668 29.169C17.6688 28.6167 17.2226 28.1674 16.6704 28.1655L16.6668 29.1655L16.6632 30.1655ZM23.33 28.1655C22.7777 28.1674 22.3316 28.6167 22.3336 29.169C22.3355 29.7213 22.7848 30.1674 23.3371 30.1655L23.3336 29.1655L23.33 28.1655ZM9.83439 16.6628C9.83243 17.2151 10.2785 17.6644 10.8308 17.6664C11.3831 17.6684 11.8324 17.2222 11.8344 16.67L10.8344 16.6664L9.83439 16.6628ZM21.927 20.9269C21.3747 20.9269 20.927 21.3746 20.927 21.9269C20.927 22.4792 21.3747 22.9269 21.927 22.9269V21.9269V20.9269ZM22.2395 22.9269C22.7918 22.9269 23.2395 22.4792 23.2395 21.9269C23.2395 21.3746 22.7918 20.9269 22.2395 20.9269V21.9269V22.9269ZM21.927 21.2394C21.3747 21.2394 20.927 21.6871 20.927 22.2394C20.927 22.7917 21.3747 23.2394 21.927 23.2394V22.2394V21.2394ZM22.2395 23.2394C22.7918 23.2394 23.2395 22.7917 23.2395 22.2394C23.2395 21.6871 22.7918 21.2394 22.2395 21.2394V22.2394V23.2394ZM21.927 24.2602C21.3747 24.2602 20.927 24.7079 20.927 25.2602C20.927 25.8125 21.3747 26.2602 21.927 26.2602V25.2602V24.2602ZM22.2395 26.2602C22.7918 26.2602 23.2395 25.8125 23.2395 25.2602C23.2395 24.7079 22.7918 24.2602 22.2395 24.2602V25.2602V26.2602ZM21.927 24.5727C21.3747 24.5727 20.927 25.0204 20.927 25.5727C20.927 26.125 21.3747 26.5727 21.927 26.5727V25.5727V24.5727ZM22.2395 26.5727C22.7918 26.5727 23.2395 26.125 23.2395 25.5727C23.2395 25.0204 22.7918 24.5727 22.2395 24.5727V25.5727V26.5727ZM25.2603 20.9269C24.7081 20.9269 24.2603 21.3746 24.2603 21.9269C24.2603 22.4792 24.7081 22.9269 25.2603 22.9269V21.9269V20.9269ZM25.5728 22.9269C26.1251 22.9269 26.5728 22.4792 26.5728 21.9269C26.5728 21.3746 26.1251 20.9269 25.5728 20.9269V21.9269V22.9269ZM25.2603 21.2394C24.7081 21.2394 24.2603 21.6871 24.2603 22.2394C24.2603 22.7917 24.7081 23.2394 25.2603 23.2394V22.2394V21.2394ZM25.5728 23.2394C26.1251 23.2394 26.5728 22.7917 26.5728 22.2394C26.5728 21.6871 26.1251 21.2394 25.5728 21.2394V22.2394V23.2394ZM25.2603 24.2602C24.7081 24.2602 24.2603 24.7079 24.2603 25.2602C24.2603 25.8125 24.7081 26.2602 25.2603 26.2602V25.2602V24.2602ZM25.5728 26.2602C26.1251 26.2602 26.5728 25.8125 26.5728 25.2602C26.5728 24.7079 26.1251 24.2602 25.5728 24.2602V25.2602V26.2602ZM25.2603 24.5727C24.7081 24.5727 24.2603 25.0204 24.2603 25.5727C24.2603 26.125 24.7081 26.5727 25.2603 26.5727V25.5727V24.5727ZM25.5728 26.5727C26.1251 26.5727 26.5728 26.125 26.5728 25.5727C26.5728 25.0204 26.1251 24.5727 25.5728 24.5727V25.5727V26.5727ZM15.8334 14.1665V15.1665H16.6667V14.1665V13.1665H15.8334V14.1665ZM18.3334 15.8332H17.3334V16.6665H18.3334H19.3334V15.8332H18.3334ZM16.6667 18.3332V17.3332H15.8334V18.3332V19.3332H16.6667V18.3332ZM14.1667 16.6665H15.1667V15.8332H14.1667H13.1667V16.6665H14.1667ZM15.8334 18.3332V17.3332C15.4652 17.3332 15.1667 17.0347 15.1667 16.6665H14.1667H13.1667C13.1667 18.1393 14.3606 19.3332 15.8334 19.3332V18.3332ZM18.3334 16.6665H17.3334C17.3334 17.0347 17.0349 17.3332 16.6667 17.3332V18.3332V19.3332C18.1394 19.3332 19.3334 18.1393 19.3334 16.6665H18.3334ZM16.6667 14.1665V15.1665C17.0349 15.1665 17.3334 15.465 17.3334 15.8332H18.3334H19.3334C19.3334 14.3604 18.1394 13.1665 16.6667 13.1665V14.1665ZM15.8334 14.1665V13.1665C14.3606 13.1665 13.1667 14.3604 13.1667 15.8332H14.1667H15.1667C15.1667 15.465 15.4652 15.1665 15.8334 15.1665V14.1665ZM15.8334 21.6665V22.6665H16.6667V21.6665V20.6665H15.8334V21.6665ZM18.3334 23.3332H17.3334V24.1665H18.3334H19.3334V23.3332H18.3334ZM16.6667 25.8332V24.8332H15.8334V25.8332V26.8332H16.6667V25.8332ZM14.1667 24.1665H15.1667V23.3332H14.1667H13.1667V24.1665H14.1667ZM15.8334 25.8332V24.8332C15.4652 24.8332 15.1667 24.5347 15.1667 24.1665H14.1667H13.1667C13.1667 25.6393 14.3606 26.8332 15.8334 26.8332V25.8332ZM18.3334 24.1665H17.3334C17.3334 24.5347 17.0349 24.8332 16.6667 24.8332V25.8332V26.8332C18.1394 26.8332 19.3334 25.6393 19.3334 24.1665H18.3334ZM16.6667 21.6665V22.6665C17.0349 22.6665 17.3334 22.965 17.3334 23.3332H18.3334H19.3334C19.3334 21.8604 18.1394 20.6665 16.6667 20.6665V21.6665ZM15.8334 21.6665V20.6665C14.3606 20.6665 13.1667 21.8604 13.1667 23.3332H14.1667H15.1667C15.1667 22.965 15.4652 22.6665 15.8334 22.6665V21.6665ZM23.3334 14.1665V15.1665H24.1667V14.1665V13.1665H23.3334V14.1665ZM25.8334 15.8332H24.8334V16.6665H25.8334H26.8334V15.8332H25.8334ZM24.1667 18.3332V17.3332H23.3334V18.3332V19.3332H24.1667V18.3332ZM21.6667 16.6665H22.6667V15.8332H21.6667H20.6667V16.6665H21.6667ZM23.3334 18.3332V17.3332C22.9652 17.3332 22.6667 17.0347 22.6667 16.6665H21.6667H20.6667C20.6667 18.1393 21.8606 19.3332 23.3334 19.3332V18.3332ZM25.8334 16.6665H24.8334C24.8334 17.0347 24.5349 17.3332 24.1667 17.3332V18.3332V19.3332C25.6394 19.3332 26.8334 18.1393 26.8334 16.6665H25.8334ZM24.1667 14.1665V15.1665C24.5349 15.1665 24.8334 15.465 24.8334 15.8332H25.8334H26.8334C26.8334 14.3604 25.6394 13.1665 24.1667 13.1665V14.1665ZM23.3334 14.1665V13.1665C21.8606 13.1665 20.6667 14.3604 20.6667 15.8332H21.6667H22.6667C22.6667 15.465 22.9652 15.1665 23.3334 15.1665V14.1665ZM13.1085 28.7123L13.5625 27.8212C12.9666 27.5176 12.4822 27.0332 12.1786 26.4374L11.2876 26.8914L10.3966 27.3453C10.8919 28.3175 11.6823 29.1079 12.6545 29.6033L13.1085 28.7123ZM28.7127 26.8914L27.8216 26.4374C27.518 27.0332 27.0336 27.5176 26.4378 27.8212L26.8918 28.7123L27.3457 29.6033C28.3179 29.1079 29.1083 28.3175 29.6037 27.3453L28.7127 26.8914ZM26.8918 11.2872L26.4378 12.1782C27.0336 12.4818 27.518 12.9662 27.8216 13.5621L28.7127 13.1081L29.6037 12.6541C29.1083 11.6819 28.3179 10.8915 27.3457 10.3962L26.8918 11.2872ZM13.1085 11.2872L12.6545 10.3962C11.6823 10.8915 10.8919 11.6819 10.3966 12.6541L11.2876 13.1081L12.1786 13.5621C12.4822 12.9662 12.9666 12.4818 13.5625 12.1782L13.1085 11.2872ZM16.6668 10.834L16.6632 9.83399C14.9351 9.84014 13.6858 9.87074 12.6545 10.3962L13.1085 11.2872L13.5625 12.1782C14.0878 11.9106 14.8151 11.8406 16.6704 11.834L16.6668 10.834ZM23.3335 10.834L23.3299 11.834C25.1852 11.8406 25.9125 11.9106 26.4378 12.1782L26.8918 11.2872L27.3457 10.3962C26.3145 9.87074 25.0652 9.84014 23.337 9.83399L23.3335 10.834ZM10.8342 23.2653L9.83417 23.2682C9.83936 25.0346 9.86536 26.3027 10.3966 27.3453L11.2876 26.8914L12.1786 26.4374C11.9068 25.9039 11.8398 25.1654 11.8342 23.2624L10.8342 23.2653ZM29.1661 23.2653L28.1661 23.2624C28.1605 25.1654 28.0934 25.9039 27.8216 26.4374L28.7127 26.8914L29.6037 27.3453C30.1349 26.3027 30.1609 25.0346 30.1661 23.2682L29.1661 23.2653ZM29.1659 16.6664L30.1659 16.6628C30.1597 14.9347 30.1291 13.6854 29.6037 12.6541L28.7127 13.1081L27.8216 13.5621C28.0893 14.0874 28.1593 14.8147 28.1659 16.67L29.1659 16.6664ZM16.6668 29.1655L16.6704 28.1655C14.8151 28.1589 14.0878 28.0889 13.5625 27.8212L13.1085 28.7123L12.6545 29.6033C13.6858 30.1287 14.9351 30.1593 16.6632 30.1655L16.6668 29.1655ZM23.3336 29.1655L23.3371 30.1655C25.0652 30.1593 26.3145 30.1287 27.3457 29.6033L26.8918 28.7123L26.4378 27.8212C25.9125 28.0889 25.1852 28.1589 23.33 28.1655L23.3336 29.1655ZM10.8344 16.6664L11.8344 16.67C11.841 14.8147 11.911 14.0874 12.1786 13.5621L11.2876 13.1081L10.3966 12.6541C9.87114 13.6854 9.84054 14.9347 9.83439 16.6628L10.8344 16.6664ZM22.5 22.0832H21.5C21.5 21.761 21.7612 21.4998 22.0834 21.4998V22.4998V23.4998C22.8658 23.4998 23.5 22.8656 23.5 22.0832H22.5ZM22.0834 22.4998V21.4998C22.4055 21.4998 22.6667 21.761 22.6667 22.0832H21.6667H20.6667C20.6667 22.8656 21.3009 23.4998 22.0834 23.4998V22.4998ZM21.6667 22.0832H22.6667C22.6667 22.4053 22.4055 22.6665 22.0834 22.6665V21.6665V20.6665C21.3009 20.6665 20.6667 21.3008 20.6667 22.0832H21.6667ZM22.0834 21.6665V22.6665C21.7612 22.6665 21.5 22.4053 21.5 22.0832H22.5H23.5C23.5 21.3008 22.8658 20.6665 22.0834 20.6665V21.6665ZM21.927 21.9269V22.9269H22.2395V21.9269V20.9269H21.927V21.9269ZM21.927 22.2394V23.2394H22.2395V22.2394V21.2394H21.927V22.2394ZM22.5 25.4165H21.5C21.5 25.0943 21.7612 24.8332 22.0834 24.8332V25.8332V26.8332C22.8658 26.8332 23.5 26.1989 23.5 25.4165H22.5ZM22.0834 25.8332V24.8332C22.4055 24.8332 22.6667 25.0943 22.6667 25.4165H21.6667H20.6667C20.6667 26.1989 21.3009 26.8332 22.0834 26.8332V25.8332ZM21.6667 25.4165H22.6667C22.6667 25.7387 22.4055 25.9998 22.0834 25.9998V24.9998V23.9998C21.3009 23.9998 20.6667 24.6341 20.6667 25.4165H21.6667ZM22.0834 24.9998V25.9998C21.7612 25.9998 21.5 25.7387 21.5 25.4165H22.5H23.5C23.5 24.6341 22.8658 23.9998 22.0834 23.9998V24.9998ZM21.927 25.2602V26.2602H22.2395V25.2602V24.2602H21.927V25.2602ZM21.927 25.5727V26.5727H22.2395V25.5727V24.5727H21.927V25.5727ZM25.8334 22.0832H24.8334C24.8334 21.761 25.0945 21.4998 25.4167 21.4998V22.4998V23.4998C26.1991 23.4998 26.8334 22.8656 26.8334 22.0832H25.8334ZM25.4167 22.4998V21.4998C25.7389 21.4998 26 21.761 26 22.0832H25H24C24 22.8656 24.6343 23.4998 25.4167 23.4998V22.4998ZM25 22.0832H26C26 22.4053 25.7389 22.6665 25.4167 22.6665V21.6665V20.6665C24.6343 20.6665 24 21.3008 24 22.0832H25ZM25.4167 21.6665V22.6665C25.0945 22.6665 24.8334 22.4053 24.8334 22.0832H25.8334H26.8334C26.8334 21.3008 26.1991 20.6665 25.4167 20.6665V21.6665ZM25.2603 21.9269V22.9269H25.5728V21.9269V20.9269H25.2603V21.9269ZM25.2603 22.2394V23.2394H25.5728V22.2394V21.2394H25.2603V22.2394ZM25.8334 25.4165H24.8334C24.8334 25.0943 25.0945 24.8332 25.4167 24.8332V25.8332V26.8332C26.1991 26.8332 26.8334 26.1989 26.8334 25.4165H25.8334ZM25.4167 25.8332V24.8332C25.7389 24.8332 26 25.0943 26 25.4165H25H24C24 26.1989 24.6343 26.8332 25.4167 26.8332V25.8332ZM25 25.4165H26C26 25.7387 25.7389 25.9998 25.4167 25.9998V24.9998V23.9998C24.6343 23.9998 24 24.6341 24 25.4165H25ZM25.4167 24.9998V25.9998C25.0945 25.9998 24.8334 25.7387 24.8334 25.4165H25.8334H26.8334C26.8334 24.6341 26.1991 23.9998 25.4167 23.9998V24.9998ZM25.2603 25.2602V26.2602H25.5728V25.2602V24.2602H25.2603V25.2602ZM25.2603 25.5727V26.5727H25.5728V25.5727V24.5727H25.2603V25.5727Z" fill="#175CD3"/>
</svg>
