<svg width="53" height="48" viewBox="0 0 53 48" fill="none" xmlns="http://www.w3.org/2000/svg">
<g clip-path="url(#clip0_2_4205)">
<g clip-path="url(#clip1_2_4205)">
<path d="M8.7738e-05 48V0H51.3604C53.6733 16.0081 52.7675 31.1997 46.2274 48H8.7738e-05Z" fill="#009FA0"/>
<path d="M20.84 18.1429L20.6226 18.3304C21.0997 18.4997 21.6191 18.1731 21.7217 17.8889L21.7459 17.5805C21.3654 17.6651 20.991 17.8526 20.84 18.1429Z" fill="#3B4395"/>
<path d="M23.4306 19.6306L23.0562 19.6064C23.0562 19.939 23.1649 20.2112 23.5152 20.4228L23.799 20.4833C24.1855 20.1507 23.6722 19.8181 23.4367 19.6245L23.4306 19.6306Z" fill="#3B4395"/>
<path d="M19.6443 11.8171L19.3665 12.0166C19.9402 12.2222 20.4113 11.9199 20.6166 11.5026L20.7072 11.1276C20.2543 11.2304 19.898 11.2304 19.6443 11.8171Z" fill="#3B4395"/>
<path d="M19.6745 13.71L19.59 13.4015C19.137 13.5043 18.7989 13.6737 18.6117 14.0184V14.2603C19.1853 14.4659 19.4873 13.9519 19.6745 13.71Z" fill="#3B4395"/>
<path d="M18.2615 16.504L18.4487 16.6189C19.0767 16.8245 19.119 16.3165 19.27 16.1109L19.5115 15.8992C18.9318 15.7843 18.4125 16.2137 18.2555 16.504H18.2615Z" fill="#3B4395"/>
<path d="M21.9572 7.59582L21.7337 7.70468C21.7941 8.10382 22.6999 8.55134 22.9294 8.23082L22.9596 7.84982C22.6637 7.65025 22.3618 7.54139 21.9572 7.59582Z" fill="#3B4395"/>
<path d="M25.1096 6.57376L24.7593 6.4649C24.5721 6.731 24.4755 6.93057 24.6687 7.39019L24.8499 7.75305C25.2606 7.34786 25.6712 6.96686 25.1096 6.56771V6.57376Z" fill="#3B4395"/>
<path d="M36.3057 15.4033C35.9131 14.8772 35.1703 14.1575 35.7863 13.462C36.1064 13.2141 36.203 13.0266 36.2453 12.6879C36.3781 11.5026 36.3177 10.9885 36.1486 10.3414C36.1788 10.281 36.2996 10.3535 36.3419 10.1419C36.4627 9.57339 36.1486 9.46453 36.1486 9.46453C36.3902 9.25287 36.366 8.46063 35.9796 8.46667C36.1909 8.11591 36.0097 7.55953 35.6293 7.68048C35.6293 7.68048 35.8225 7.58372 35.7924 7.32972C35.744 6.82777 35.0254 7.31763 35.2066 6.98501C35.3032 6.80963 34.8986 6.21091 34.6933 6.67658C34.5725 6.59191 34.7778 6.30767 34.5604 6.21696C34.4336 6.21696 34.2947 6.32582 34.1317 6.41653C34.0834 6.22301 34.2826 6.12624 34.0411 5.8541C33.7089 5.62429 33.6908 5.96296 33.4614 6.08996C33.0386 5.9932 34.035 5.74524 33.1413 5.36424C32.9118 5.91458 32.9299 5.50939 32.8273 5.43077C32.7669 5.38843 32.628 5.52753 32.3744 5.78758C32.5072 5.42472 32.8092 4.9772 32.3683 5.11024C31.8671 5.34005 32.157 5.04372 32.157 5.00139C32.5918 4.80786 31.7524 4.33615 31.7886 4.83205C31.7765 5.17072 31.0519 5.45496 31.2572 5.04977C31.3961 4.53572 32.0181 5.32191 31.4806 4.40872C31.1424 4.78972 30.8707 5.04372 30.8163 5.18281C30.5567 6.22905 30.7016 5.27353 30.4299 5.26143C30.7922 5.01953 31.2572 4.59015 31.1243 4.30591C30.7318 4.27567 29.826 4.91672 30.3997 4.97115C30.3574 5.17677 30.0253 5.41867 29.832 5.06186C30.1521 4.9772 30.6956 3.91281 30.0192 4.22729C29.9528 4.29381 29.9528 4.48129 29.832 4.65667C29.669 4.51153 29.8018 4.28777 29.7414 4.19705C29.1979 3.6951 29.3912 4.99534 29.4093 5.28562C28.7028 4.84415 29.367 4.97115 29.1798 4.23939C28.5941 4.34824 28.437 4.59619 28.5337 5.25539C28.4552 5.41262 28.3042 5.77548 28.2076 5.32796C28.5216 4.91067 28.4974 4.31196 27.9419 4.29986C28.8356 12.4823 28.7692 20.7554 27.495 28.8653L27.4286 29.3007C28.0687 29.2947 29.0047 29.1012 29.675 29.0649C31.6135 29.1314 31.5712 29.3794 34.7778 29.337C35.5146 29.2645 35.7199 29.1435 35.9614 29.1556C35.7259 28.1638 34.1075 28.7262 33.2862 28.442C31.8913 28.3089 31.6557 27.4683 31.2149 26.8515C31.0156 26.5067 30.7258 26.0713 30.7318 25.4968C30.6231 24.7529 30.768 24.3598 30.756 23.6281C30.8163 23.0898 31.4323 23.1987 31.8128 23.2471C33.0205 23.368 35.0435 23.1684 35.581 23.0112C36.3419 22.7814 36.36 22.3097 35.8467 21.6021C35.738 21.2514 35.7561 21.0397 35.9071 20.7252C36.1184 20.4894 36.3902 20.3321 36.1849 20.0418C36.1849 20.0418 34.4336 19.6729 35.6414 19.4734C36.8733 19.2677 36.4627 18.7597 36.4627 18.7597C36.4627 18.7597 36.2573 18.2517 36.0701 17.8707C35.9312 17.5925 37.0967 17.5018 37.2236 17.0603C37.5013 16.6793 36.6197 15.8327 36.3117 15.4093L36.3057 15.4033ZM33.7029 14.9437C32.9481 15.113 31.8067 14.599 31.9577 14.4962C32.3442 14.2361 33.2198 13.7825 34.0652 14.0849C34.2102 14.1393 34.2706 14.2784 34.2826 14.4659C34.3189 14.8953 33.9747 14.9074 33.7029 14.9437Z" fill="#3B4395"/>
<path d="M27.4285 29.3068C26.4381 35.3907 24.7654 41.5835 22.2653 48H8.7738e-05V0H27.3983C27.6278 1.57843 27.7788 2.73957 27.9418 4.30591C27.9418 4.30591 27.4708 4.45105 27.5191 4.8381C27.5674 5.26143 27.7546 5.3582 27.7546 5.3582L27.5493 5.45496C27.5493 5.45496 27.3258 5.12234 27.3198 5.13443C27.3198 4.81391 27.4587 4.32405 26.7159 4.50548C26.4563 5.07396 27.1205 5.19491 26.9514 5.58196C26.1664 5.63034 26.7159 4.98929 26.0939 5.3461C26.1362 5.16467 26.0033 4.68086 25.8041 4.7111C25.7195 4.98324 25.5082 5.44286 25.8161 5.72105C25.7195 5.78758 25.4296 5.7392 25.3632 5.64243C25.2726 5.50334 25.5746 5.26748 25.333 4.84415C24.6084 5.15862 25.2787 5.86015 24.6808 6.1202C24.0226 6.03553 25.0613 5.47915 24.5359 4.99534C23.9441 5.13443 23.7207 5.74524 23.9622 6.1081C23.9501 6.42863 23.6965 6.59191 23.6542 6.8701C23.3583 6.82172 23.2315 6.71891 23.2013 6.60401C23.1651 6.39839 23.7388 6.29558 23.3523 5.84201C22.7242 5.93877 23.1409 6.95477 22.6397 6.41048C22.5854 6.17463 22.4283 5.96296 22.3076 5.93877C22.0721 6.1081 21.9573 6.38024 22.1083 6.6161L22.3619 6.94872C22.3317 6.94267 22.4706 7.13015 22.4344 7.1241C22.0177 6.79148 21.4682 6.56167 21.1119 6.93663C21.1541 7.28739 21.4561 7.30553 21.9332 7.41439C21.3293 7.46882 21.2206 7.68048 21.0213 7.80144C20.9488 7.40229 20.4838 7.34182 20.049 7.28134C19.8075 7.34182 19.6505 7.17248 19.5357 7.25715C19.7169 7.70467 20.1577 8.04939 20.6892 8.15825C20.9307 8.12801 20.9609 8.13406 21.13 8.04334C21.4501 8.19453 21.4138 8.24291 21.4984 8.46667C21.0334 8.67834 20.6529 8.4062 20.1879 8.52715C20.1879 8.54529 20.0672 8.54529 20.0611 8.51506C20.0672 8.50901 20.0068 8.40015 20.0128 8.3941C19.8135 8.00706 19.27 8.15825 18.9802 8.24291C18.9379 8.55134 19.2519 8.80534 19.5116 8.90815C19.8618 9.03515 19.9705 8.93234 19.9705 8.93234L20.1155 8.80534C20.2664 9.35568 20.4657 9.38591 20.7556 9.60968C20.4355 9.73063 20.3147 9.82739 19.9041 9.79111C19.4452 9.08353 18.0743 8.7751 18.1227 9.10772C18.3219 9.83949 19.3304 10.0149 19.3304 10.0149C19.3304 10.0149 18.799 10.2144 18.8896 10.3838C18.9802 10.5531 19.6746 10.662 19.578 10.9281C18.8533 10.6075 18.7145 10.7406 19.2036 11.3695C18.5937 11.3998 18.7326 10.7406 18.3461 10.5894C18.0683 10.795 18.2313 11.2244 18.2313 11.2244C18.0925 11.1155 17.7241 10.4987 17.4221 10.5712C17.3255 10.6438 17.3255 10.9825 17.5671 11.2002C17.2712 11.2667 16.8001 11.2244 16.7277 11.5389C17.2047 11.9017 17.712 11.9017 18.4548 11.811C18.4548 11.811 18.5937 11.811 18.7326 11.7626C18.8775 11.7142 19.0889 11.9138 19.0889 11.9138C18.7205 11.9985 18.8775 12.1194 18.1528 12.2646C17.6758 12.4944 17.3014 12.7907 17.3014 13.2624C17.5973 13.4076 17.9536 13.5467 18.1528 13.2624C18.4669 12.8028 18.3823 13.1717 18.6058 13.1536L18.8533 13.2322C18.6541 13.7221 17.5429 13.716 17.7603 14.0668C17.9717 14.4054 18.3099 14.7623 18.3099 14.7623C18.3099 14.7623 17.5248 14.3692 17.3074 14.6473C17.1021 14.9074 17.561 15.3368 18.3884 15.5182C18.1045 15.6875 17.1202 15.5182 17.718 16.1351C17.0115 16.4374 17.241 16.6491 17.8147 16.4979L18.0864 16.5282C17.9173 16.6491 17.4101 16.8789 17.4523 17.0603C17.4825 17.3023 18.0562 16.9999 18.1468 17.1813C18.1891 17.4414 17.869 17.5563 17.8388 17.6288C18.2434 17.8889 18.485 17.266 18.8473 17.6288C18.7084 17.8949 18.1166 17.8405 18.2434 18.2396C18.4669 18.409 18.8352 18.3364 19.0587 18.4997C19.0587 18.4997 18.7628 19.0742 18.9137 19.1528C19.2398 19.3101 19.5418 18.8021 19.6565 18.7658C19.572 19.431 20.1336 19.2073 19.9645 19.6608C19.9585 19.9027 19.9403 20.2354 20.194 20.3624C20.7073 20.2051 20.7556 19.7999 20.7435 19.1891C20.7435 18.9774 21.3353 19.3282 21.3353 19.3282C21.6976 19.6185 20.7194 19.8423 21.0092 20.4652C21.8365 20.5801 21.8365 19.8725 22.5129 19.7455C22.8088 19.9511 22.3861 20.2837 22.2894 20.5196C21.8667 20.7554 21.3534 20.4712 20.9549 21.2876C21.5286 21.5235 21.8003 21.33 21.9996 21.2272C22.1808 21.0941 22.1626 21.0336 22.3015 20.9792C22.3136 21.203 22.2593 21.6142 22.4767 21.7049C22.6639 21.6928 22.682 21.6203 22.839 21.5175C23.002 21.6928 22.5733 22.1162 22.8329 22.2976C23.0745 22.2553 23.147 22.0436 23.147 22.0436C23.2919 22.2371 23.4549 22.2371 23.6059 22.1887C23.6905 21.9831 23.7086 21.5114 23.4429 21.3421C23.5697 21.1909 23.8777 21.4751 24.0166 21.3723C24.2702 21.6807 23.7025 22.2794 24.1253 22.5274C24.5299 22.4911 24.5117 22.0799 24.9224 21.9105C24.8499 22.3278 25.333 22.6302 24.7171 22.9447C24.7171 23.3559 25.4719 23.2289 25.1096 23.8216C25.2485 24.0575 25.4417 23.9546 25.6108 23.9123L25.9731 23.5011C25.8765 23.8337 25.8403 24.3538 25.9369 24.7408C25.8101 25.0493 26.106 25.4061 25.5444 25.6722C25.3874 26.4463 25.3874 27.2264 24.4936 27.7223C23.9864 28.6778 20.7979 28.1698 20.0973 29.1193C20.2664 29.2886 21.8969 29.2342 22.1083 29.1737C22.4163 29.0226 22.6578 29.2886 22.9779 29.2826C23.6965 29.2826 24.548 29.0467 25.1398 29.2826C25.9731 29.2766 26.6736 29.3007 27.4225 29.3068H27.4285Z" fill="#3B4395"/>
<path d="M30.9489 35.8624C30.9489 34.3444 31.6675 33.3405 33.153 33.3405C34.6386 33.3405 35.321 34.2658 35.321 35.8624C35.321 37.3501 34.6205 38.481 33.153 38.481C31.6856 38.481 30.9489 37.3622 30.9489 35.8624ZM33.153 40.2348C35.8101 40.2348 37.5795 38.2754 37.5795 35.8624C37.5795 33.3224 35.792 31.5867 33.153 31.5867C30.5141 31.5867 28.6964 33.274 28.6964 35.8624C28.6964 38.4508 30.5322 40.2348 33.153 40.2348Z" fill="white"/>
<path d="M43.9867 33.3708C43.4855 33.2921 43.0024 33.1772 42.5012 33.1772C41.6195 33.1772 41.0036 33.3829 41.0036 33.8183C41.0036 34.3142 41.8309 34.7133 42.7669 35.2092C43.6546 35.687 44.8744 36.3281 44.8744 37.7674C44.8744 39.3458 43.4734 40.2348 41.3417 40.2348C40.3755 40.2348 39.7052 40.0413 38.902 39.872V38.1181C39.518 38.3117 40.5204 38.6443 41.4202 38.6443C42.0181 38.6443 42.6159 38.3721 42.6159 37.8279C42.6159 37.332 41.9033 37.0296 40.8707 36.4551C39.9347 35.9894 38.7511 35.0339 38.7511 33.8183C38.7511 32.385 40.1883 31.5867 42.1207 31.5867C42.7548 31.5867 43.3708 31.6472 43.9867 31.7258V33.3708Z" fill="white"/>
<path d="M6.75745 39.9567C6.80576 39.0314 6.84199 38.3117 6.84199 37.0175V32.5786C6.84199 30.982 6.73933 29.7664 6.50985 28.5871H9.43869C9.43869 29.4036 9.35415 30.5345 9.35415 31.8105V35.9592C9.35415 37.1264 9.53531 38.862 9.68628 39.9506H6.75745V39.9567Z" fill="white"/>
<path d="M13.9014 36.0922C13.9014 34.4593 14.5898 33.3405 16.009 33.3405C17.3315 33.3405 18.2554 34.4714 18.2554 36.0861C18.2554 37.5255 17.5368 38.481 16.1116 38.481C14.6865 38.481 13.9014 37.6706 13.9014 36.0922ZM14.2335 43.4401C14.0645 42.2124 14.0645 40.8396 14.0645 40.3921V39.4365C14.6683 39.7873 15.3024 40.2348 16.6612 40.2348C18.9559 40.2348 20.5079 38.481 20.5079 36.0741C20.5079 33.4554 18.9016 31.5928 16.5585 31.5928C14.9341 31.5928 14.2637 32.3729 13.7263 32.9595C13.6115 32.5301 13.5572 32.1673 13.4243 31.7984L11.2987 31.9556C11.5644 33.3587 11.7999 34.6589 11.7999 36.0922V39.4365C11.7999 40.6158 11.5463 42.8353 11.4678 43.5973L14.2275 43.4401H14.2335Z" fill="white"/>
<path d="M26.6735 33.3466C26.1723 33.268 25.8703 33.1772 25.3691 33.1772C24.4874 33.1772 23.8715 33.3829 23.8715 33.8183C23.8715 34.3142 24.7048 34.7133 25.6348 35.2092C26.5225 35.687 27.7424 36.3281 27.7424 37.7674C27.7424 39.3458 26.3414 40.2348 24.2096 40.2348C23.2434 40.2348 22.5731 40.0413 21.77 39.872V38.1181C22.3859 38.3117 23.3884 38.6443 24.2882 38.6443C24.886 38.6443 25.4838 38.3721 25.4838 37.8279C25.4838 37.332 24.7713 37.0296 23.7386 36.4551C22.8026 35.9894 21.619 35.0339 21.619 33.8183C21.619 32.385 23.0562 31.5867 24.9887 31.5867C25.6227 31.5867 26.3836 31.6774 26.9996 31.75L26.6735 33.3405V33.3466Z" fill="white"/>
</g>
</g>
<defs>
<clipPath id="clip0_2_4205">
<rect width="52.5138" height="48" fill="white" transform="matrix(-1 0 0 1 52.5138 0)"/>
</clipPath>
<clipPath id="clip1_2_4205">
<rect width="52.5138" height="48" fill="white"/>
</clipPath>
</defs>
</svg>
