<?xml version="1.0" standalone="no"?>
<!DOCTYPE svg PUBLIC "-//W3C//DTD SVG 20010904//EN"
 "http://www.w3.org/TR/2001/REC-SVG-20010904/DTD/svg10.dtd">
<svg version="1.0" xmlns="http://www.w3.org/2000/svg"
 width="1200.000000pt" height="326.000000pt" viewBox="0 0 1200.000000 326.000000"
 preserveAspectRatio="xMidYMid meet">

<g transform="translate(0.000000,326.000000) scale(0.100000,-0.100000)"
fill="#005695" stroke="none">
<path d="M11295 3209 c-1103 -113 -1371 -141 -1393 -146 -12 -3 -33 -19 -47
-35 -23 -27 -25 -38 -25 -129 0 -123 13 -154 69 -169 27 -7 343 -10 983 -8
1049 3 978 -1 1030 70 22 31 23 41 23 200 0 153 -2 169 -21 195 -31 42 -83 73
-118 72 -17 -1 -242 -23 -501 -50z"/>
<path d="M155 3231 c-67 -17 -127 -74 -144 -138 -15 -53 -15 -2863 0 -2916 13
-47 63 -106 106 -123 23 -10 84 -14 213 -14 208 0 239 9 287 82 l28 42 -3
1013 c-2 557 -1 1013 2 1013 2 0 26 -39 52 -87 68 -126 725 -1310 862 -1553
224 -400 245 -429 337 -478 l50 -27 268 -3 268 -3 44 25 c24 14 54 43 67 63
l23 38 3 1273 2 1272 2233 0 c2105 0 2234 1 2267 18 19 9 45 32 57 51 21 31
23 45 23 168 0 150 -9 180 -63 213 -32 20 -70 20 -2510 20 -2454 0 -2478 0
-2517 -20 -46 -23 -84 -71 -98 -120 -5 -21 -7 -408 -4 -1000 2 -531 1 -962 -3
-958 -4 4 -252 452 -550 995 -489 892 -547 994 -601 1049 -43 44 -75 67 -119
84 -57 23 -74 24 -305 26 -135 2 -258 -1 -275 -5z"/>
<path d="M7717 3210 c-67 -13 -121 -66 -137 -136 -5 -21 -10 -195 -10 -386 l0
-348 -82 0 c-65 0 -90 -4 -115 -20 -56 -34 -65 -65 -61 -211 l3 -129 38 -37
c37 -37 39 -38 126 -41 l90 -4 4 -621 c4 -702 2 -678 83 -846 38 -78 60 -109
132 -181 70 -71 103 -95 172 -129 141 -68 210 -81 448 -81 188 0 207 2 237 20
51 31 65 80 65 218 0 187 -27 220 -187 231 -144 10 -223 51 -286 147 -55 82
-57 110 -57 701 l0 543 218 0 c187 0 222 2 252 18 57 28 70 67 70 208 0 109
-2 124 -23 155 -38 56 -50 59 -294 59 l-223 0 0 368 c0 362 0 368 -22 412 -27
52 -60 78 -114 90 -46 11 -272 11 -327 0z"/>
<path d="M9035 3216 c-5 -3 -27 -7 -48 -11 -48 -8 -112 -64 -128 -113 -9 -29
-11 -360 -5 -1477 l7 -1440 22 -45 c15 -29 37 -53 63 -67 36 -21 51 -23 222
-23 211 0 241 9 289 82 l28 42 3 1439 c1 952 -1 1452 -8 1477 -14 50 -43 86
-93 112 -37 19 -61 22 -192 25 -82 1 -154 1 -160 -1z"/>
<path d="M3805 2413 c-100 -14 -240 -58 -340 -107 -299 -148 -497 -404 -592
-766 -35 -131 -43 -390 -18 -542 79 -486 390 -844 840 -966 74 -20 122 -25
264 -29 187 -6 264 2 417 42 310 81 565 279 660 514 48 118 47 175 -2 225
l-27 26 -219 0 c-145 0 -227 -4 -241 -11 -12 -7 -65 -56 -117 -109 -142 -145
-244 -186 -445 -178 -160 7 -264 50 -366 151 -85 84 -153 223 -161 327 l-3 35
795 5 795 5 36 23 c70 43 90 133 70 313 -31 273 -123 501 -275 681 -156 186
-410 321 -670 357 -73 10 -336 13 -401 4z m330 -488 c201 -52 365 -219 399
-407 l7 -38 -539 0 -539 0 9 53 c16 92 61 172 141 251 111 110 219 154 377
155 47 1 113 -6 145 -14z"/>
<path d="M6025 2406 c-361 -59 -613 -243 -698 -511 -32 -102 -32 -282 1 -377
65 -189 239 -343 488 -431 39 -14 143 -42 230 -61 249 -56 518 -135 569 -167
56 -35 85 -81 85 -134 -1 -89 -63 -165 -167 -205 -80 -31 -307 -40 -403 -16
-147 37 -245 107 -297 212 -44 90 -58 94 -298 94 -180 0 -203 -2 -232 -20 -48
-29 -56 -52 -51 -151 4 -76 9 -97 42 -164 114 -231 423 -415 784 -466 136 -19
434 -7 562 24 266 63 460 179 567 340 186 278 130 661 -125 862 -69 55 -184
115 -272 143 -36 12 -200 55 -365 97 -393 99 -466 127 -505 191 -42 67 -16
176 55 229 107 82 409 90 556 14 60 -30 127 -96 155 -152 37 -72 56 -77 280
-77 200 0 228 6 255 56 22 42 6 154 -33 236 -99 204 -320 353 -633 424 -95 22
-440 28 -550 10z"/>
<path d="M10612 2405 c-359 -65 -641 -280 -802 -610 -88 -181 -124 -343 -124
-565 -1 -181 18 -300 71 -455 130 -376 412 -644 780 -742 83 -22 126 -27 279
-30 156 -4 196 -2 292 16 356 68 622 243 751 494 44 83 67 171 57 212 -4 15
-20 40 -36 56 l-28 29 -217 0 c-254 0 -262 -2 -331 -91 -111 -144 -251 -209
-454 -209 -152 0 -260 39 -364 131 -94 84 -166 218 -182 338 l-7 51 801 2
c791 3 801 3 828 24 60 44 69 67 72 181 11 317 -105 633 -312 850 -168 176
-353 273 -610 318 -109 18 -360 19 -464 0z m371 -481 c193 -50 353 -212 385
-391 l9 -53 -535 0 -535 0 7 40 c29 185 186 353 379 405 71 19 215 19 290 -1z"/>
</g>
</svg>
